<svg xmlns="http://www.w3.org/2000/svg" viewBox="0 0 64 64" role="img" aria-labelledby="title desc">
  <title id="title">WhatsApp-style chat icon</title>
  <desc id="desc">A green chat bubble with a white phone handset inside.</desc>
  <defs>
    <linearGradient id="g" x1="0%" y1="0%" x2="0%" y2="100%">
      <stop offset="0%" stop-color="#25D366"/>
      <stop offset="100%" stop-color="#128C7E"/>
    </linearGradient>
  </defs>
  <circle cx="32" cy="32" r="30" fill="url(#g)"/>
  <path fill="#fff" d="M19.5 44.7l2.1-7.6A14.8 14.8 0 1 1 32 46.8c-4 0-7.8-1.6-10.5-4.1l-2 .8Z" opacity="0.95"/>
  <path fill="#fff" d="M28.5 23.8c.4-.9 1-1 1.5-1 .4 0 .9 0 1.4.1.4.1 1.2.5 1.5 1.3.3.8 1.2 2.6 1.3 2.8.1.3.2.6 0 1-.2.4-.3.7-.6 1-.3.3-.6.7-.9 1-.3.3-.6.6-.3 1.2.3.6 1.2 2 2.6 3.2 1.8 1.5 3.3 2 3.9 2.3.6.2 1 .2 1.4-.1.4-.3 1.7-2 2-2.6.3-.6.6-.5 1-.3.4.2 2.5 1.2 2.9 1.4.4.2.7.3.8.5.1.2.1 1.2-.2 2.4-.3 1.2-1.8 2.3-2.4 2.6-.6.3-1.2.5-2.1.5-.9 0-3.3-.3-6.3-1.8-3.7-1.8-6.1-5.2-6.3-5.4-.2-.3-1.5-2-1.5-3.8 0-1.8.9-2.7 1.2-3.1.3-.4.7-.6 1-.6.3 0 .6.1.9.2.3.1.8.3 1.2.5.4.2.7.3.9.5.2.2.4.3.2.8-.2.5-.7 1.7-1 2.1-.2.4-.5.4-.9.2-.4-.2-1.6-.8-3-2.5-1.1-1.2-1.9-2.7-2.1-3.1-.2-.4 0-.8.1-1.1Z"/>
</svg>